<?xml version="1.0" encoding="utf-8"?>
<!-- Svg Vector Icons : http://www.onlinewebfonts.com/icon -->
<!DOCTYPE svg PUBLIC "-//W3C//DTD SVG 1.1//EN" "http://www.w3.org/Graphics/SVG/1.1/DTD/svg11.dtd">
<svg version="1.1" xmlns="http://www.w3.org/2000/svg" xmlns:xlink="http://www.w3.org/1999/xlink" x="0px" y="0px" viewBox="0 0 1000 1000" enable-background="new 0 0 1000 1000" xml:space="preserve">
<metadata> Svg Vector Icons : http://www.onlinewebfonts.com/icon </metadata>
<g><path d="M812.8,948.8H174.4c-17.8,0-32.2-14.4-32.2-32.2V370.8h64.4v513.5h573.9V370.8H845v545.8C845,934.3,830.6,948.8,812.8,948.8z"/><path d="M957.8,533.2c-7.7,0-15.5-2.7-21.7-8.3L496.5,127.1L64,524.7c-13,12.1-33.4,11.3-45.5-1.9c-12.1-13.1-11.1-33.5,1.9-45.6L474.5,59.7c12.2-11.2,31.1-11.3,43.4-0.1l461.5,417.5c13.1,11.9,14.2,32.3,2.3,45.5C975.3,529.6,966.5,533.2,957.8,533.2z"/><path d="M625.2,832.6h-64.4V619.1H426.5v213.5H362V586.9c0-17.8,14.4-32.2,32.2-32.2h198.7c17.8,0,32.2,14.4,32.2,32.2L625.2,832.6L625.2,832.6z"/></g>
</svg>